<?xml version="1.0" encoding="utf-8"?>
<!-- Generator: Adobe Illustrator 16.2.1, SVG Export Plug-In . SVG Version: 6.00 Build 0)  -->
<!DOCTYPE svg PUBLIC "-//W3C//DTD SVG 1.0//EN" "http://www.w3.org/TR/2001/REC-SVG-20010904/DTD/svg10.dtd">
<svg version="1.0" id="Layer_1" xmlns="http://www.w3.org/2000/svg" xmlns:xlink="http://www.w3.org/1999/xlink" x="0px" y="0px"
	 width="712.074px" height="326.984px" viewBox="0 0 712.074 326.984" enable-background="new 0 0 712.074 326.984"
	 xml:space="preserve">
<g>
	<rect x="249.571" y="96.746" fill="none" width="543.97" height="279.608"/>
	<text transform="matrix(1 0 0 1 249.5713 129.6738)"><tspan x="0" y="0" font-family="'Karla-Bold'" font-size="48">h1 {</tspan><tspan x="0" y="57.6" font-family="'Karla-Bold'" font-size="48">       font-size: 24px;</tspan><tspan x="0" y="115.2" font-family="'Karla-Bold'" font-size="48">       line-height: 1.4;</tspan><tspan x="0" y="172.799" font-family="'Karla-Bold'" font-size="48">       }</tspan></text>
	<rect x="249.571" y="36.786" fill="none" width="158.706" height="31.668"/>
	<text transform="matrix(1 0 0 1 249.5713 53.25)" font-family="'Karla-Bold'" font-size="24">Rule</text>
	<rect x="6.458" y="101.968" fill="none" width="158.707" height="31.668"/>
	<text transform="matrix(1 0 0 1 71.3506 118.4326)" font-family="'Karla-Bold'" font-size="24">Selector</text>
	<rect x="6.458" y="167.151" fill="none" width="158.707" height="31.668"/>
	<text transform="matrix(1 0 0 1 32.063 183.6152)" font-family="'Karla-Bold'" font-size="24">Declaration</text>
	<rect x="384.578" y="36.769" fill="none" width="158.707" height="31.668"/>
	<text transform="matrix(1 0 0 1 446.8545 53.2334)" font-family="'Karla-Bold'" font-size="24">Property</text>
	<rect x="577.338" y="36.786" fill="none" width="158.707" height="31.668"/>
	<text transform="matrix(1 0 0 1 577.3379 53.25)" font-family="'Karla-Bold'" font-size="24">Value</text>
	<g>
		<circle cx="210.573" cy="45.873" r="25.499"/>
		<rect x="187.574" y="35.997" fill="none" width="44.712" height="33.245"/>
		<text transform="matrix(1 0 0 1 205.2891 53.833)" fill="#FFFFFF" font-family="'Karla-Bold'" font-size="26">1</text>
	</g>
	<g>
		<circle cx="210.573" cy="111.056" r="25.499"/>
		<rect x="187.574" y="101.18" fill="none" width="44.712" height="33.245"/>
		<text transform="matrix(1 0 0 1 202.0649 119.0156)" fill="#FFFFFF" font-family="'Karla-Bold'" font-size="26">2</text>
	</g>
	<g>
		<circle cx="210.573" cy="176.238" r="25.499"/>
		<rect x="187.574" y="166.362" fill="none" width="44.712" height="33.246"/>
		<text transform="matrix(1 0 0 1 201.8442 184.1982)" fill="#FFFFFF" font-family="'Karla-Bold'" font-size="26">3</text>
	</g>
	<g>
		<circle cx="521.556" cy="96.746" r="25.499"/>
		<rect x="498.557" y="86.87" fill="none" width="44.712" height="33.246"/>
		<text transform="matrix(1 0 0 1 513.1777 104.7061)" fill="#FFFFFF" font-family="'Karla-Bold'" font-size="26">4</text>
	</g>
	<g>
		<circle cx="590.553" cy="96.746" r="25.499"/>
		<rect x="567.554" y="86.87" fill="none" width="44.712" height="33.246"/>
		<text transform="matrix(1 0 0 1 582.3438 104.7061)" fill="#FFFFFF" font-family="'Karla-Bold'" font-size="26">5</text>
	</g>
</g>
</svg>
