<?xml version="1.0" encoding="utf-8"?>
<!-- Generator: Adobe Illustrator 16.2.1, SVG Export Plug-In . SVG Version: 6.00 Build 0)  -->
<!DOCTYPE svg PUBLIC "-//W3C//DTD SVG 1.1//EN" "http://www.w3.org/Graphics/SVG/1.1/DTD/svg11.dtd">
<svg version="1.1" id="Layer_1" xmlns="http://www.w3.org/2000/svg" xmlns:xlink="http://www.w3.org/1999/xlink" x="0px" y="0px"
	 width="712.074px" height="326.984px" viewBox="0 0 712.074 326.984" enable-background="new 0 0 712.074 326.984"
	 xml:space="preserve">
<g>
	<rect x="249.571" y="105.07" fill="none" width="543.97" height="279.607"/>
	<text transform="matrix(1 0 0 1 249.5713 129.6738)" enable-background="new    "><tspan x="0" y="0" fill="#6C98BB" font-family="'Karla-Bold'" font-size="48">h1</tspan><tspan x="47.039" y="0" font-family="'Karla-Bold'" font-size="48"> </tspan><tspan x="59.183" y="0" fill="#A54646" font-family="'Karla-Bold'" font-size="48">{</tspan></text>
	<text transform="matrix(1 0 0 1 249.5713 187.2734)" enable-background="new    "><tspan x="0" y="0" font-family="'Karla-Bold'" font-size="48">       </tspan><tspan x="85.005" y="0" fill="#609160" font-family="'Karla-Bold'" font-size="48">font-size:</tspan><tspan x="299.705" y="0" font-family="'Karla-Bold'" font-size="48"> </tspan><tspan x="311.849" y="0" fill="#7B5F8E" font-family="'Karla-Bold'" font-size="48">24px;</tspan></text>
	<text transform="matrix(1 0 0 1 249.5713 244.874)" enable-background="new    "><tspan x="0" y="0" font-family="'Karla-Bold'" font-size="48">       </tspan><tspan x="85.005" y="0" fill="#609160" font-family="'Karla-Bold'" font-size="48">line-height:</tspan><tspan x="349.431" y="0" font-family="'Karla-Bold'" font-size="48"> </tspan><tspan x="361.574" y="0" fill="#7B5F8E" font-family="'Karla-Bold'" font-size="48">1.4;</tspan></text>
	<text transform="matrix(1 0 0 1 249.5713 302.4727)" enable-background="new    "><tspan x="0" y="0" font-family="'Karla-Bold'" font-size="48">      </tspan><tspan x="72.861" y="0" fill="#A54646" font-family="'Karla-Bold'" font-size="48"> }</tspan></text>
	<rect x="249.571" y="36.786" fill="none" width="158.707" height="31.668"/>
	<text transform="matrix(1 0 0 1 249.5713 53.25)" fill="#A54646" font-family="'Karla-Bold'" font-size="24">Rule</text>
	<rect x="6.458" y="101.968" fill="none" width="158.707" height="31.668"/>
	<text transform="matrix(1 0 0 1 71.3506 118.4326)" fill="#6C98BB" font-family="'Karla-Bold'" font-size="24">Selector</text>
	<rect x="6.458" y="167.15" fill="none" width="158.707" height="31.668"/>
	<text transform="matrix(1 0 0 1 32.063 183.6152)" fill="#E2B542" font-family="'Karla-Bold'" font-size="24">Declaration</text>
	<rect x="384.578" y="36.769" fill="none" width="158.707" height="31.668"/>
	<text transform="matrix(1 0 0 1 446.8545 53.2334)" fill="#609160" font-family="'Karla-Bold'" font-size="24">Property</text>
	<rect x="577.338" y="36.786" fill="none" width="158.707" height="31.668"/>
	<text transform="matrix(1 0 0 1 577.3379 53.25)" fill="#7B5F8E" font-family="'Karla-Bold'" font-size="24">Value</text>
	<g>
		<circle fill="#A54646" cx="210.573" cy="45.873" r="25.499"/>
		<rect x="187.574" y="35.997" fill="none" width="44.712" height="33.245"/>
		<text transform="matrix(1 0 0 1 205.2891 53.833)" fill="#F3F3DA" font-family="'Karla-Bold'" font-size="26">1</text>
	</g>
	<g>
		<circle fill="#6C98BB" cx="210.573" cy="111.056" r="25.499"/>
		<rect x="187.574" y="101.18" fill="none" width="44.712" height="33.245"/>
		<text transform="matrix(1 0 0 1 202.0649 119.0156)" fill="#F3F3DA" font-family="'Karla-Bold'" font-size="26">2</text>
	</g>
	<g>
		<circle fill="#E2B542" cx="210.573" cy="176.238" r="25.499"/>
		<rect x="187.574" y="166.361" fill="none" width="44.712" height="33.246"/>
		<text transform="matrix(1 0 0 1 201.8442 184.1982)" fill="#F3F3DA" font-family="'Karla-Bold'" font-size="26">3</text>
	</g>
	<g>
		<circle fill="#609160" cx="521.556" cy="96.746" r="25.499"/>
		<rect x="498.557" y="86.87" fill="none" width="44.712" height="33.246"/>
		<text transform="matrix(1 0 0 1 513.1777 104.7061)" fill="#F3F3DA" font-family="'Karla-Bold'" font-size="26">4</text>
	</g>
	<g>
		<circle fill="#7B5F8E" cx="590.553" cy="96.746" r="25.499"/>
		<rect x="567.554" y="86.87" fill="none" width="44.712" height="33.246"/>
		<text transform="matrix(1 0 0 1 582.3438 104.7061)" fill="#F3F3DA" font-family="'Karla-Bold'" font-size="26">5</text>
	</g>
	<path fill="none" stroke="#E2B542" stroke-width="4" stroke-miterlimit="10" d="M694.537,178.361v11.375c0,6.627-5.373,12-12,12
		H340.924c-6.627,0-12-5.373-12-12v-11.375"/>
	<path fill="none" stroke="#E2B542" stroke-width="4" stroke-miterlimit="10" d="M694.537,233.187v11.375c0,6.627-5.373,12-12,12
		H340.924c-6.627,0-12-5.373-12-12v-11.375"/>
</g>
</svg>
